<?xml version="1.0" standalone="no"?>
<!DOCTYPE svg PUBLIC "-//W3C//DTD SVG 20010904//EN"
 "http://www.w3.org/TR/2001/REC-SVG-20010904/DTD/svg10.dtd">
<svg version="1.0" xmlns="http://www.w3.org/2000/svg"
 width="1024.000000pt" height="1024.000000pt" viewBox="0 0 1024.000000 1024.000000"
 preserveAspectRatio="xMidYMid meet">

<g transform="translate(0.000000,1024.000000) scale(0.100000,-0.100000)"
fill="#000000" stroke="none">
<path d="M0 5120 l0 -5120 5120 0 5120 0 0 5120 0 5120 -5120 0 -5120 0 0
-5120z m5415 3915 c97 -20 234 -75 352 -141 103 -58 281 -226 330 -313 l30
-53 145 -48 c135 -45 294 -117 416 -189 29 -17 56 -31 60 -31 4 0 62 58 129
129 l123 129 -21 46 c-17 40 -18 51 -8 88 23 88 121 145 202 119 96 -32 134
-162 74 -253 -33 -48 -81 -70 -142 -64 -49 6 -51 5 -80 -33 -16 -21 -61 -73
-98 -117 -37 -43 -66 -85 -65 -93 2 -8 53 -49 114 -90 182 -125 263 -189 379
-302 l110 -107 36 31 c20 18 79 77 132 132 l95 100 -10 47 c-40 173 185 262
261 104 26 -54 27 -106 1 -156 -27 -54 -69 -74 -135 -66 l-52 6 -124 -132
c-68 -72 -126 -135 -128 -140 -2 -5 10 -24 26 -41 86 -93 190 -238 285 -397
127 -212 154 -261 207 -379 158 -350 255 -743 287 -1158 l7 -93 93 0 93 0 34
53 c60 92 116 127 205 127 67 0 164 -49 197 -99 79 -118 31 -283 -99 -342
-112 -51 -259 7 -311 121 l-18 40 -98 0 -97 0 -7 -107 c-17 -292 -79 -611
-167 -868 -79 -231 -251 -565 -391 -760 -62 -87 -195 -250 -233 -288 l-28 -28
131 -129 131 -128 59 1 c47 1 65 -3 92 -22 37 -27 71 -91 71 -136 0 -47 -35
-112 -72 -135 -50 -30 -128 -28 -168 6 -49 42 -63 78 -56 148 l6 61 -130 135
c-125 130 -130 134 -145 115 -78 -101 -268 -263 -470 -400 -55 -37 -102 -69
-103 -71 -2 -1 41 -59 96 -127 l101 -124 54 -5 c95 -8 150 -71 150 -173 0 -85
-40 -140 -114 -156 -137 -31 -244 128 -171 253 15 25 15 29 1 40 -9 7 -54 58
-101 113 -47 55 -92 106 -100 113 -13 10 -36 1 -145 -57 -157 -85 -417 -190
-568 -230 -33 -9 -44 -19 -64 -56 -24 -46 -146 -169 -223 -225 -24 -18 -70
-45 -103 -62 -33 -17 -61 -32 -63 -33 -2 -2 10 -22 27 -46 82 -112 109 -326
59 -466 -58 -162 -197 -303 -348 -352 -64 -20 -180 -30 -244 -20 -129 20 -264
92 -344 184 -48 54 -100 155 -116 225 -33 139 -12 278 65 419 16 30 28 55 26
56 -1 1 -44 24 -96 51 -120 62 -242 162 -306 247 -55 73 -57 74 -304 163 -126
45 -332 140 -402 185 l-57 38 -125 -133 -125 -132 19 -34 c24 -45 23 -114 -1
-168 -15 -34 -29 -47 -65 -63 -62 -27 -114 -19 -165 27 -48 44 -64 82 -58 144
9 88 75 150 160 150 42 0 45 3 113 82 39 45 89 103 113 129 l43 47 -108 72
c-138 92 -272 200 -397 320 l-99 95 -132 -139 -132 -138 14 -29 c30 -61 -7
-162 -70 -192 -62 -30 -128 -16 -179 39 -98 107 -15 275 131 262 37 -3 41 0
164 128 70 73 127 135 127 139 0 4 -31 44 -69 89 -437 515 -696 1178 -725
1861 l-4 90 -105 3 -105 3 -15 -39 c-18 -44 -83 -107 -133 -128 -85 -35 -213
-1 -269 71 -80 105 -77 213 9 303 64 69 144 93 228 68 72 -21 121 -60 155
-123 l28 -53 108 0 107 0 0 103 c0 320 107 779 261 1121 131 290 346 630 503
794 l40 42 -134 135 -135 135 -50 0 c-63 0 -107 26 -135 79 -34 69 -26 126 28
184 57 61 137 54 200 -17 39 -45 48 -78 34 -130 -10 -40 -10 -40 48 -106 32
-36 92 -98 134 -139 l75 -74 72 77 c123 132 375 328 506 395 l42 21 -30 32
c-17 18 -72 79 -122 136 -90 101 -91 102 -136 102 -91 0 -151 64 -151 160 0
92 60 160 143 160 73 0 125 -46 148 -132 10 -38 10 -49 -4 -78 -10 -18 -17
-37 -17 -42 0 -9 237 -271 249 -276 4 -1 34 14 67 33 135 83 424 207 514 221
36 6 45 14 84 73 152 227 482 432 759 471 90 13 309 5 402 -15z m1040 -59 c49
-49 38 -114 -22 -137 -35 -13 -60 -3 -78 31 -22 43 -18 68 14 101 36 35 54 36
86 5z m-2474 -15 c36 -36 37 -60 3 -100 -33 -40 -66 -40 -106 -1 -34 35 -33
68 4 108 29 30 64 28 99 -7z m-1901 -1540 c38 -27 70 -80 70 -116 0 -39 -34
-92 -79 -122 -114 -77 -250 69 -183 197 36 68 128 87 192 41z m6327 12 c128
-60 78 -263 -65 -263 -92 0 -161 115 -118 198 39 74 111 100 183 65z m143
-575 c24 -40 25 -75 3 -100 -25 -28 -67 -23 -97 13 -32 38 -33 63 -1 94 35 36
71 33 95 -7z m-6660 2 c18 -18 18 -21 3 -65 -25 -76 -82 -93 -113 -35 -20 37
34 120 77 120 7 0 22 -9 33 -20z m-111 -376 c38 -32 49 -80 27 -122 -9 -17
-25 -36 -36 -42 -28 -15 -81 -15 -108 -1 -29 15 -62 69 -62 99 0 80 113 122
179 66z m6922 16 c24 -13 49 -61 49 -96 0 -41 -59 -94 -105 -94 -54 0 -105 53
-105 108 0 33 6 45 31 66 33 28 93 35 130 16z m-7027 -406 c12 -5 16 -20 16
-58 0 -69 -8 -79 -54 -71 -29 6 -36 12 -36 30 0 33 18 78 37 93 20 14 17 14
37 6z m7055 -12 c5 -9 11 -37 13 -62 l3 -45 -42 -3 -43 -3 0 59 c0 32 3 62 7
65 13 14 53 7 62 -11z m-7043 -1004 c8 -40 8 -113 -1 -127 -8 -14 -62 -14 -70
0 -4 6 -9 37 -12 70 -7 68 5 89 47 89 24 0 30 -5 36 -32z m7050 10 c12 -18 8
-102 -5 -126 -9 -16 -21 -22 -48 -22 l-36 0 5 65 c3 36 11 72 18 80 15 18 56
20 66 3z m-6954 -388 c27 -28 30 -36 25 -73 -8 -55 -43 -87 -98 -87 -107 0
-138 147 -39 183 41 15 82 6 112 -23z m6902 16 c41 -17 66 -51 66 -88 0 -39
-46 -86 -92 -94 -34 -6 -41 -3 -73 29 -55 55 -46 117 21 152 36 18 37 18 78 1z
m-6807 -425 c28 -42 29 -65 3 -91 -27 -27 -66 -26 -84 3 -26 39 -30 75 -11
103 23 36 62 29 92 -15z m6688 9 c33 -36 0 -130 -45 -130 -33 0 -63 34 -62 69
2 71 65 107 107 61z m-6485 -429 c39 -27 72 -99 65 -141 -13 -69 -99 -129
-166 -115 -42 9 -95 59 -109 101 -10 29 -9 43 4 78 36 94 130 129 206 77z
m6331 -4 c47 -31 82 -104 73 -151 -8 -48 -50 -91 -102 -107 -38 -11 -46 -10
-88 12 -97 50 -113 163 -32 235 44 41 99 45 149 11z m-1643 -1565 c3 -18 -4
-26 -32 -37 -19 -8 -45 -15 -56 -15 -20 0 -20 1 -5 30 27 53 87 67 93 22z
m-3060 -18 c25 -18 29 -52 6 -61 -26 -10 -64 14 -64 40 0 40 20 48 58 21z
m277 -59 c35 -34 34 -83 -3 -118 -36 -35 -57 -34 -93 2 -37 38 -38 76 -2 113
33 35 66 36 98 3z m2478 -7 c38 -45 6 -138 -48 -138 -38 0 -75 44 -75 89 0 73
76 104 123 49z m-233 -93 c10 -12 10 -21 1 -41 -9 -21 -17 -25 -44 -22 -29 3
-32 6 -35 41 -3 36 -2 37 31 37 19 0 40 -7 47 -15z"/>
<path d="M5005 8903 c-216 -49 -404 -152 -546 -299 -133 -138 -189 -237 -236
-414 -25 -94 -27 -122 -27 -270 0 -152 2 -172 27 -255 15 -49 40 -115 55 -145
15 -30 28 -58 30 -61 2 -4 -14 -10 -35 -14 -50 -9 -92 -35 -143 -91 -59 -64
-80 -115 -80 -199 0 -85 35 -168 101 -240 55 -60 105 -85 167 -85 l49 0 6 -82
c4 -46 7 -739 7 -1540 l0 -1458 -57 0 c-36 0 -75 -8 -101 -20 -63 -28 -139
-113 -157 -173 -20 -66 -19 -162 1 -221 18 -51 99 -148 145 -172 28 -14 29
-18 29 -87 2 -279 156 -561 397 -725 73 -50 133 -80 253 -126 52 -21 98 -41
102 -45 4 -4 -23 -38 -61 -77 -112 -115 -151 -197 -151 -318 0 -120 40 -215
119 -289 166 -156 419 -149 578 15 97 100 134 208 114 333 -18 105 -49 163
-141 258 -44 47 -77 88 -72 91 5 3 50 20 98 37 203 71 354 186 473 361 85 126
149 351 137 484 l-6 72 30 12 c44 18 118 105 153 178 26 56 29 71 25 131 -6
78 -37 145 -96 206 -49 51 -104 75 -172 75 l-55 0 0 1538 1 1537 58 7 c102 13
173 72 236 198 28 55 38 161 20 216 -30 93 -123 181 -201 191 -21 3 -39 9 -39
13 0 4 13 37 30 73 16 37 42 110 56 164 23 82 27 119 27 228 0 198 -28 326
-105 479 -126 250 -392 444 -687 500 -78 15 -305 21 -356 9z m424 -178 c374
-125 572 -404 574 -810 1 -105 -3 -147 -22 -220 -36 -139 -99 -255 -140 -255
-27 0 -28 -6 23 125 44 116 71 273 63 374 -20 247 -70 377 -195 501 -54 54
-97 86 -143 108 -83 40 -97 41 -38 4 118 -75 228 -245 271 -417 32 -129 31
-337 -1 -450 -30 -107 -95 -245 -115 -245 -24 0 -19 30 19 120 66 155 80 213
80 345 -1 255 -87 456 -254 589 -31 25 -71 58 -90 75 -19 16 -38 28 -42 26 -9
-6 -128 10 -154 20 -11 4 10 -15 47 -43 133 -103 228 -242 271 -397 27 -101
34 -300 13 -385 -41 -166 -118 -306 -183 -331 -12 -4 -224 -9 -470 -10 l-448
-1 -27 39 c-86 122 -132 270 -132 428 0 182 44 337 133 472 97 148 235 258
405 324 129 50 186 59 322 55 107 -4 136 -9 233 -41z m651 -1460 c39 -37 60
-76 60 -110 0 -46 -61 -140 -105 -163 -13 -6 -307 -10 -870 -9 l-850 1 -53 50
c-85 82 -90 151 -17 226 l34 35 885 0 885 0 31 -30z m-1420 -455 c0 -5 -10
-14 -21 -21 -12 -6 -41 -29 -65 -51 l-44 -41 0 62 0 61 65 0 c36 0 65 -4 65
-10z m559 -74 c-2 -3 -46 -47 -96 -99 -51 -53 -93 -91 -93 -86 0 12 172 189
184 189 5 0 7 -2 5 -4z m-346 -53 l69 -6 -69 -63 c-37 -35 -77 -64 -88 -65
-11 0 -14 -3 -7 -6 6 -2 10 -9 6 -14 -8 -13 -21 -11 -21 4 -4 69 -30 145 -52
150 -26 7 89 7 162 0z m147 -146 c0 -2 -10 -12 -22 -23 l-23 -19 19 23 c18 21
26 27 26 19z m-460 -79 c0 -13 8 -18 30 -18 17 0 30 5 30 10 0 16 22 12 35 -6
10 -15 13 -15 28 1 9 9 17 12 17 8 0 -13 -53 -58 -63 -55 -5 1 -6 -2 -3 -7 4
-5 -18 -36 -48 -68 l-55 -58 -1 65 c0 92 11 175 21 158 5 -7 9 -21 9 -30z
m410 17 c-7 -9 -15 -13 -17 -11 -7 7 7 26 19 26 6 0 6 -6 -2 -15z m78 -47 c25
-25 2 -174 -25 -164 -7 3 -13 2 -13 -2 0 -4 -18 -6 -40 -4 -44 4 -70 30 -70
69 0 33 30 90 54 101 29 15 80 14 94 0z m-161 -127 c7 -12 8 -21 3 -23 -6 -2
-11 -39 -13 -83 -2 -45 -7 -87 -12 -95 -5 -9 -4 -11 3 -6 7 4 12 2 12 -4 0 -8
-7 -9 -17 -5 -10 4 -38 11 -63 16 -85 15 -102 22 -112 45 -13 28 -26 30 -44 7
-7 -10 -14 -14 -14 -10 0 16 93 98 106 93 7 -3 10 2 7 14 -3 12 3 22 17 30 18
10 22 9 27 -9 3 -12 8 -21 12 -21 9 0 41 38 41 49 0 8 15 18 30 20 3 1 11 -8
17 -18z m363 -73 c-97 -87 -243 -223 -326 -305 -68 -68 -98 -91 -111 -87 -13
4 -14 3 -5 -3 9 -7 6 -15 -14 -34 -21 -18 -26 -20 -21 -6 4 9 2 17 -4 17 -7 0
-9 -9 -6 -21 4 -15 -8 -34 -48 -76 -30 -30 -59 -52 -65 -48 -5 3 -10 -1 -10
-10 0 -9 -16 -23 -36 -31 -24 -10 -40 -26 -50 -49 -7 -18 -17 -36 -21 -38 -5
-3 -8 111 -8 253 l0 259 30 31 c29 30 65 56 65 46 0 -3 -13 -20 -30 -38 -18
-20 -30 -43 -30 -60 0 -36 11 -35 32 2 32 57 107 48 134 -16 20 -47 11 -84
-19 -85 -18 -1 -19 -2 -4 -6 15 -4 18 -12 13 -46 -3 -23 -3 -36 0 -28 5 11 8
11 15 0 6 -10 9 -11 9 -1 0 6 7 12 16 12 21 0 48 31 71 80 16 33 50 60 77 60
6 0 24 7 40 15 22 12 32 12 42 4 10 -8 14 -8 14 0 0 6 -5 11 -11 11 -5 0 -7 5
-3 11 3 6 0 15 -7 20 -11 7 -8 14 14 30 16 13 27 30 27 45 0 17 6 24 20 24 11
0 20 5 20 10 0 6 9 10 19 10 11 0 22 6 25 13 5 10 7 10 12 0 3 -7 14 -13 25
-13 10 0 19 6 20 13 0 9 2 9 6 -1 2 -6 9 -10 13 -7 5 3 7 12 3 20 -4 11 -1 13
13 8 13 -5 15 -3 9 7 -5 9 -4 11 3 6 7 -4 22 2 34 13 12 12 27 21 32 21 6 0
-5 -15 -24 -32z m574 -175 c-2 -38 -4 -166 -4 -286 l0 -217 -185 -189 c-102
-103 -264 -262 -362 -352 -97 -90 -302 -287 -456 -436 -153 -150 -282 -273
-285 -273 -4 0 -8 119 -10 265 l-3 265 643 644 c354 354 648 644 654 645 8 1
10 -21 8 -66z m-880 -301 c-187 -181 -234 -225 -239 -220 -6 6 369 368 382
368 4 0 -60 -67 -143 -148z m-365 -362 c-18 -22 -35 -38 -37 -35 -5 5 57 75
65 75 2 0 -11 -18 -28 -40z m-42 -102 c-2 -13 -4 -5 -4 17 -1 22 1 32 4 23 2
-10 2 -28 0 -40z m30 -180 c13 -3 12 -7 -6 -28 l-20 -25 0 45 c1 25 3 37 6 28
2 -9 11 -18 20 -20z m453 -1011 c0 -2 -12 -14 -27 -28 l-28 -24 24 28 c23 25
31 32 31 24z m-167 -169 c-94 -102 -124 -132 -114 -111 10 20 139 153 149 153
3 0 -13 -19 -35 -42z m511 -46 c-47 -42 -134 -106 -134 -98 0 7 160 136 168
136 4 -1 -12 -18 -34 -38z m-802 -39 c-30 -37 -36 -36 -28 4 5 22 12 29 30 29
l24 0 -26 -33z m1519 -280 c49 -51 69 -83 69 -108 0 -34 -50 -123 -81 -146
-29 -20 -34 -20 -900 -20 l-871 1 -38 42 c-21 24 -46 60 -56 80 -16 36 -16 40
0 82 10 25 33 59 52 76 l35 30 877 0 878 0 35 -37z m-542 -438 c11 -4 13 -27
9 -108 -4 -95 -8 -110 -42 -180 -49 -99 -100 -155 -190 -212 -119 -74 -244
-107 -349 -91 -41 6 -95 36 -185 102 -21 15 -24 16 -40 0 -22 -19 -43 -20 -62
-3 -8 6 -1 -3 15 -22 42 -47 131 -114 193 -145 68 -35 225 -70 249 -57 10 6
62 24 117 41 54 17 110 38 125 47 186 115 257 187 313 315 45 103 68 186 68
248 0 53 10 73 29 60 22 -13 6 -164 -26 -262 -33 -100 -84 -178 -166 -255
-119 -111 -218 -162 -366 -187 -45 -8 -86 -18 -90 -22 -3 -3 39 -4 94 -1 181
9 302 66 446 207 64 62 96 104 122 155 47 95 76 193 85 290 6 74 9 80 31 83
l24 4 -6 -99 c-19 -312 -175 -533 -458 -647 -254 -102 -469 -84 -712 61 -226
134 -367 368 -367 607 l0 81 562 -3 c310 -1 569 -5 577 -7z m-280 -1081 c68
-20 141 -86 171 -156 24 -56 29 -144 10 -193 -30 -78 -115 -145 -214 -169 -44
-11 -136 12 -191 48 -155 102 -149 348 10 442 78 45 133 53 214 28z"/>
<path d="M4658 8393 c-30 -34 -78 -117 -78 -134 0 -10 9 -21 20 -24 11 -4 34
-18 51 -32 40 -34 57 -24 80 45 10 29 27 65 38 81 l20 28 -37 20 c-58 32 -77
35 -94 16z"/>
<path d="M5920 7139 c-85 -4 -188 -7 -229 -8 l-73 -1 7 -47 c4 -27 11 -52 16
-58 6 -6 75 -9 175 -8 149 2 168 4 200 23 33 21 82 96 66 102 -4 2 -77 0 -162
-3z"/>
<path d="M4555 5905 c-18 -39 -19 -94 -3 -132 17 -39 16 -39 37 -14 10 12 25
20 32 18 8 -2 11 -2 7 0 -18 10 -6 23 22 23 23 0 30 4 30 20 0 11 5 20 11 20
5 0 7 5 4 10 -3 6 -17 10 -31 10 -15 0 -24 6 -24 15 0 8 -4 15 -10 15 -5 0
-10 8 -10 19 0 12 -9 20 -25 23 -20 4 -27 -1 -40 -27z"/>
<path d="M6054 3463 c1 -17 -15 -18 -199 -24 -110 -3 -202 -7 -204 -7 -10 -4
8 -95 20 -103 8 -5 89 -9 180 -9 182 0 178 -1 213 67 20 39 20 67 2 82 -11 9
-14 8 -12 -6z"/>
<path d="M5241 1969 c80 -23 113 -171 57 -256 -55 -83 -207 -123 -273 -71
l-28 21 12 -21 c22 -42 88 -76 155 -80 52 -3 71 0 113 21 205 104 184 360 -32
391 l-40 5 36 -10z"/>
<path d="M6223 8337 c17 -45 48 -155 61 -221 31 -146 13 -389 -36 -511 l-24
-60 58 -53 c82 -77 130 -175 136 -281 10 -167 -38 -303 -142 -406 -58 -58
-110 -85 -162 -85 -19 0 -19 -35 -16 -1425 l2 -1425 23 0 c59 -1 161 -74 218
-157 64 -92 95 -255 69 -364 -18 -79 -74 -179 -130 -235 -43 -42 -50 -54 -50
-89 0 -62 -18 -159 -45 -243 -13 -42 -23 -78 -20 -80 11 -12 302 110 455 191
243 128 389 232 625 446 152 137 358 395 500 626 265 431 399 855 435 1378 38
550 -110 1184 -392 1681 -175 307 -387 571 -617 766 -214 181 -399 299 -716
455 -211 103 -241 116 -232 92z m327 -372 c133 -67 381 -239 519 -360 343
-298 654 -794 796 -1266 53 -173 112 -505 122 -681 l6 -111 -69 6 c-38 4 -405
7 -816 7 -663 1 -750 -1 -770 -14 -31 -22 -58 -20 -85 6 -52 49 -9 139 59 122
44 -10 1529 -17 1540 -6 4 4 5 45 1 90 l-6 82 -681 0 c-375 0 -710 5 -746 10
-41 6 -68 6 -74 0 -18 -18 -69 -11 -93 12 -46 43 -16 128 46 128 16 0 37 -10
51 -25 l23 -25 732 0 732 0 -24 129 c-43 239 -166 571 -291 786 -71 123 -204
323 -259 390 -84 101 -212 229 -317 317 -144 121 -500 358 -536 358 -9 0 -8 5
3 18 10 10 17 28 17 39 0 17 6 20 33 18 19 -2 58 -15 87 -30z m140 -807 c78
-53 112 -128 96 -213 -8 -42 -54 -98 -96 -115 l-30 -12 0 -241 0 -240 38 7
c20 3 85 6 145 6 l107 0 0 38 c0 50 45 114 99 142 44 22 122 27 168 9 40 -15
92 -67 114 -114 62 -133 -45 -305 -190 -305 -55 0 -139 46 -162 90 l-19 35
-294 5 c-295 5 -295 5 -321 -17 -34 -30 -66 -29 -95 2 -32 34 -32 86 0 120 28
30 60 32 85 5 16 -18 31 -20 122 -20 l103 0 0 244 0 245 -22 7 c-83 25 -125
162 -78 254 43 85 156 118 230 68z m503 -1760 c438 -1 797 -4 797 -6 0 -29
-46 -361 -59 -427 -49 -244 -141 -521 -221 -670 -18 -33 -51 -94 -73 -135 -80
-149 -256 -394 -377 -524 -88 -96 -230 -229 -315 -297 -122 -98 -370 -257
-382 -246 -3 4 11 16 31 28 36 21 49 36 21 25 -9 -3 -15 0 -15 9 0 10 -10 15
-30 15 -16 0 -30 5 -30 11 0 5 4 8 9 5 5 -3 14 1 21 9 6 7 64 51 128 96 358
253 554 459 777 814 205 327 327 682 365 1063 7 63 9 117 5 120 -5 5 -985 13
-1561 12 -33 0 -50 41 -34 81 l13 31 66 -6 c36 -3 425 -7 864 -8z m-847 -252
c16 -11 98 -15 419 -18 284 -3 409 -8 431 -17 33 -13 50 -46 31 -58 -7 -5
-203 -9 -437 -11 -416 -2 -425 -3 -446 -23 -27 -25 -63 -20 -94 13 -57 61 27
162 96 114z m855 -237 c156 -47 202 -249 82 -360 -71 -67 -139 -78 -223 -37
-61 30 -110 92 -110 140 l0 28 -145 0 -145 0 0 -214 c0 -117 -3 -234 -6 -260
-6 -42 -5 -46 14 -46 11 0 35 -12 53 -27 88 -75 96 -240 14 -312 -59 -51 -132
-63 -194 -32 -71 37 -121 116 -121 191 1 57 79 175 121 182 11 2 20 6 19 11 0
4 0 121 0 260 l0 253 -87 2 c-48 2 -89 5 -91 7 -3 3 -20 -9 -39 -25 -41 -37
-53 -37 -86 -5 -31 32 -41 69 -26 98 31 60 65 72 109 37 23 -18 43 -20 317
-20 l291 0 20 34 c11 18 36 45 55 60 58 44 111 55 178 35z m-22 -675 c25 -32
26 -46 6 -84 -13 -24 -22 -30 -50 -30 -39 0 -75 31 -75 66 0 34 37 74 70 74
19 0 36 -9 49 -26z"/>
<path d="M6551 7064 c-30 -38 -28 -103 2 -132 36 -34 89 -30 121 9 30 35 32
58 11 100 -28 53 -101 66 -134 23z"/>
<path d="M7103 6440 c-33 -13 -63 -69 -63 -113 0 -56 52 -107 108 -107 66 0
120 68 108 136 -12 63 -96 109 -153 84z"/>
<path d="M7074 4776 c-29 -29 -34 -41 -34 -81 0 -38 5 -52 29 -76 63 -63 181
-12 181 78 0 68 -43 113 -111 113 -22 0 -41 -10 -65 -34z"/>
<path d="M6551 4033 c-59 -74 -23 -158 66 -156 78 2 111 89 57 152 -35 42 -92
44 -123 4z"/>
<path d="M4045 8306 c-33 -13 -124 -56 -203 -95 -509 -255 -884 -588 -1184
-1051 -233 -359 -382 -759 -452 -1211 -36 -232 -45 -542 -22 -734 50 -409 127
-673 301 -1030 164 -335 385 -623 674 -878 215 -189 393 -312 621 -431 143
-74 388 -181 397 -172 2 2 -7 31 -22 65 -38 90 -55 167 -55 243 l0 68 -54 55
c-34 34 -68 82 -93 131 -34 69 -38 88 -41 165 -4 95 13 176 51 239 61 104 156
184 233 196 l42 6 1 1424 2 1424 -23 0 c-36 0 -122 44 -160 83 -48 48 -102
139 -128 217 -18 55 -21 82 -18 170 3 93 7 111 32 157 35 64 118 158 156 178
l28 15 -18 38 c-32 66 -60 230 -60 349 0 125 29 304 58 364 23 46 19 46 -63
15z m-57 -329 c23 -6 42 -15 42 -19 0 -4 -27 -21 -59 -38 -225 -113 -513 -321
-704 -509 -211 -206 -336 -376 -471 -634 -116 -221 -201 -463 -250 -712 -9
-44 -18 -90 -21 -102 l-5 -23 731 0 731 0 18 22 c23 29 83 30 105 3 24 -32 15
-94 -18 -118 l-27 -21 -43 21 c-34 17 -47 19 -63 10 -13 -8 -228 -13 -734 -15
-393 -2 -715 -4 -716 -5 -1 -1 -4 -41 -7 -89 l-5 -88 759 0 c494 0 760 3 764
10 13 20 63 11 84 -16 27 -34 27 -64 0 -98 -24 -30 -47 -33 -80 -8 -22 16 -73
17 -775 14 l-751 -3 -7 -77 c-4 -42 -12 -80 -19 -84 -17 -11 1533 2 1554 13
31 16 57 10 78 -20 44 -61 13 -120 -56 -106 -54 11 -989 16 -1298 7 -224 -6
-260 -9 -256 -22 2 -8 7 -49 12 -90 37 -296 154 -685 266 -883 18 -33 33 -61
33 -63 0 -12 190 -296 239 -359 66 -83 292 -316 355 -365 25 -19 45 -41 46
-47 0 -17 -55 -44 -77 -37 -16 5 -15 4 2 -10 37 -29 45 -37 45 -47 0 -17 -81
51 -101 85 -11 17 -19 27 -19 22 0 -5 -9 -1 -20 9 -16 14 -18 21 -8 27 9 6 6
7 -8 4 -27 -8 -75 41 -70 71 3 14 -8 32 -36 59 -23 22 -37 32 -33 24 5 -8 -3
-3 -18 12 -27 29 -49 39 -27 13 7 -9 11 -18 8 -20 -7 -8 -39 31 -43 52 -1 10
-7 17 -13 16 -5 -1 -43 41 -84 95 -302 394 -472 792 -545 1280 -19 128 -25
478 -12 637 10 116 46 325 80 460 127 504 369 931 734 1290 187 184 414 349
634 460 68 35 73 35 159 12z m-224 -913 c14 -13 16 -61 16 -369 l0 -353 99 -1
c83 -2 104 1 134 19 43 25 79 15 102 -29 20 -40 19 -63 -5 -94 -31 -39 -55
-42 -93 -13 l-33 25 -299 2 c-245 1 -300 -1 -304 -12 -2 -8 -20 -30 -40 -51
-96 -95 -262 -63 -325 64 -46 91 -28 189 47 255 47 41 96 56 167 51 100 -7
164 -68 177 -169 l6 -39 117 0 c65 0 126 -3 135 -6 14 -6 15 24 13 338 -3 315
-2 346 15 371 20 30 48 35 71 11z m333 -1926 c30 -28 31 -83 1 -115 -27 -29
-57 -29 -92 -2 l-28 22 -516 -8 c-284 -4 -530 -4 -545 0 -26 7 -28 11 -23 39
4 16 10 34 15 39 20 20 179 25 616 18 434 -7 461 -6 484 11 31 24 60 23 88 -4z
m-814 -350 c18 -18 21 -23 6 -10 -14 13 -39 27 -55 32 -25 7 -26 8 -6 9 13 1
36 -13 55 -31z m817 7 c29 -31 30 -76 3 -113 -25 -34 -58 -39 -93 -14 -23 18
-39 20 -126 16 l-99 -4 -2 -262 -3 -263 44 -26 c61 -37 90 -99 84 -183 -5 -77
-38 -128 -102 -157 -54 -25 -92 -24 -146 4 -100 50 -134 177 -74 274 16 25 44
53 61 62 l33 16 0 267 0 266 -120 4 c-65 1 -123 8 -129 13 -5 6 -11 26 -13 45
l-3 35 284 3 c265 2 285 4 308 22 34 27 65 25 93 -5z m-801 -551 c24 -30 26
-43 10 -77 -24 -53 -91 -54 -124 -3 -47 72 61 147 114 80z m-134 -645 c11 -17
-1 -21 -15 -4 -8 9 -8 15 -2 15 6 0 14 -5 17 -11z m358 -194 c27 -24 37 -42
15 -29 -7 5 -8 3 -3 -5 4 -7 16 -10 27 -8 12 3 29 -4 46 -20 25 -24 25 -25 5
-19 -32 10 -63 -2 -63 -25 0 -12 -7 -19 -20 -19 -16 0 -19 5 -15 23 15 71 13
87 -12 107 -14 11 -22 20 -17 20 5 0 21 -12 37 -25z m-70 -68 c-4 -7 0 -8 13
-3 10 4 15 4 11 0 -4 -4 1 -17 10 -28 10 -11 -1 -5 -24 13 -48 37 -51 41 -23
34 11 -3 17 -10 13 -16z"/>
<path d="M3155 6448 c-37 -20 -55 -51 -55 -99 0 -58 26 -94 80 -110 97 -29
172 69 128 166 -22 48 -103 71 -153 43z"/>
<path d="M3682 4027 c-33 -35 -30 -99 4 -126 82 -64 178 40 113 123 -27 35
-86 36 -117 3z"/>
<path d="M1530 5663 c-74 -24 -104 -71 -98 -150 4 -49 10 -61 41 -89 46 -43
94 -52 144 -28 98 48 112 181 26 242 -30 20 -88 34 -113 25z"/>
<path d="M8722 5640 c-123 -75 -76 -250 67 -250 47 0 96 37 118 88 25 61 -6
135 -71 166 -45 21 -74 20 -114 -4z"/>
<path d="M1962 7348 c-17 -17 -15 -64 4 -82 33 -33 94 -7 94 41 0 42 -68 71
-98 41z"/>
<path d="M8312 7348 c-6 -6 -12 -27 -12 -45 0 -37 29 -56 65 -43 26 9 43 55
29 78 -13 21 -65 27 -82 10z"/>
<path d="M1970 3784 c-18 -20 -17 -74 1 -85 39 -25 89 5 89 54 0 42 -63 64
-90 31z"/>
<path d="M8306 3768 c-21 -29 -20 -41 2 -61 24 -22 55 -21 75 1 23 25 21 48
-5 66 -31 22 -54 20 -72 -6z"/>
</g>
</svg>
